<svg width="42" height="42" xmlns="http://www.w3.org/2000/svg" xmlns:xlink="http://www.w3.org/1999/xlink" xml:space="preserve" overflow="hidden"><g><path d="M34.3875 13.7375C40.075 7.35 38.0187 5.11875 38.0187 5.11875 37.3188 4.41875 36.225 4.41875 35.525 5.11875L18.9438 21.7 4.50625 35.175C3.5 36.1812 3.5 37.8438 4.50625 38.8937 5.5125 39.9 7.175 39.9 8.225 38.8937L21.3938 24.4563C22.05 24.7625 23.8 25.6375 24.325 25.0688L34.3875 13.7375Z" fill="#FFD28E"/><path d="M38.85 35.175 27.3438 24.2812 25.5938 26.25C25.2875 26.5562 24.7625 26.95 23.9312 26.9937L35.175 38.8937C36.225 39.9 37.8875 39.9 38.8937 38.8937 39.8563 37.8438 39.8563 36.1812 38.85 35.175Z" fill="#FFD28E"/><path d="M15.7063 20.825C15.7063 20.825 16.4937 20.65 17.3687 20.7812L17.7188 20.4312 20.7375 17.4125C20.6062 16.5813 20.7812 15.75 20.7812 15.75 21.0875 13.8688 20.3438 11.6813 18.1125 9.45 14.4375 5.775 9.1875 2.3625 9.1875 2.3625L8.4 3.15 17.2375 11.9875C17.5 12.25 17.5 12.6438 17.2375 12.9062 16.975 13.1687 16.5813 13.1687 16.3188 12.9062L7.48125 4.06875 6.25625 5.29375 15.0938 14.1312C15.3562 14.3938 15.3562 14.7875 15.0938 15.05 14.8313 15.3125 14.4375 15.3125 14.175 15.05L5.3375 6.2125 4.1125 7.4375 12.95 16.275C13.2125 16.5375 13.2125 16.9312 12.95 17.1938 12.6875 17.4563 12.2937 17.4563 12.0312 17.1938L3.15 8.4 2.3625 9.1875C2.3625 9.1875 6.08125 14.7875 9.40625 18.1562 11.6375 20.3875 13.825 21.1313 15.7063 20.825Z" fill="#FFD28E"/></g></svg>